<svg width="20" height="20" viewBox="0 0 20 20" fill="none" xmlns="http://www.w3.org/2000/svg">
<path d="M13.5352 5H6.46484C5.6572 5 5 5.6572 5 6.46484V13.5352C5 14.3428 5.6572 15 6.46484 15H13.5352C14.3428 15 15 14.3428 15 13.5352V6.46484C15 5.6572 14.3428 5 13.5352 5ZM10.0195 12.6172C8.5656 12.6172 7.38281 11.4344 7.38281 9.98047C7.38281 8.52654 8.5656 7.34375 10.0195 7.34375C11.4735 7.34375 12.6562 8.52654 12.6562 9.98047C12.6562 11.4344 11.4735 12.6172 10.0195 12.6172ZM12.9492 7.92969C12.4646 7.92969 12.0703 7.5354 12.0703 7.05078C12.0703 6.56616 12.4646 6.17188 12.9492 6.17188C13.4338 6.17188 13.8281 6.56616 13.8281 7.05078C13.8281 7.5354 13.4338 7.92969 12.9492 7.92969Z" fill="#BCBCBC"/>
<path d="M13.5352 5H6.46484C5.6572 5 5 5.6572 5 6.46484V13.5352C5 14.3428 5.6572 15 6.46484 15H13.5352C14.3428 15 15 14.3428 15 13.5352V6.46484C15 5.6572 14.3428 5 13.5352 5ZM10.0195 12.6172C8.5656 12.6172 7.38281 11.4344 7.38281 9.98047C7.38281 8.52654 8.5656 7.34375 10.0195 7.34375C11.4735 7.34375 12.6562 8.52654 12.6562 9.98047C12.6562 11.4344 11.4735 12.6172 10.0195 12.6172ZM12.9492 7.92969C12.4646 7.92969 12.0703 7.5354 12.0703 7.05078C12.0703 6.56616 12.4646 6.17188 12.9492 6.17188C13.4338 6.17188 13.8281 6.56616 13.8281 7.05078C13.8281 7.5354 13.4338 7.92969 12.9492 7.92969Z" fill="#BCBCBC"/>
<path d="M12.9492 6.75781C12.7876 6.75781 12.6562 6.88911 12.6562 7.05078C12.6562 7.21245 12.7876 7.34375 12.9492 7.34375C13.1109 7.34375 13.2422 7.21245 13.2422 7.05078C13.2422 6.88911 13.1109 6.75781 12.9492 6.75781Z" fill="#BCBCBC"/>
<path d="M10.0195 7.92969C8.88885 7.92969 7.96875 8.84979 7.96875 9.98047C7.96875 11.1111 8.88885 12.0312 10.0195 12.0312C11.1502 12.0312 12.0703 11.1111 12.0703 9.98047C12.0703 8.84979 11.1502 7.92969 10.0195 7.92969Z" fill="#BCBCBC"/>
<circle cx="10" cy="10" r="9.5" stroke="#C4C4C4"/>
</svg>
