<svg width="20" height="20" viewBox="0 0 20 20" fill="none" xmlns="http://www.w3.org/2000/svg">
<path d="M15.9364 13.1832C15.9219 13.1519 15.9083 13.1259 15.8957 13.1051C15.6875 12.7301 15.2897 12.2698 14.7024 11.7242L14.69 11.7117L14.6838 11.7056L14.6775 11.6993H14.6712C14.4046 11.4452 14.2358 11.2743 14.1652 11.1869C14.0358 11.0203 14.0069 10.8516 14.0775 10.6807C14.1275 10.5516 14.3151 10.2789 14.6399 9.86233C14.8107 9.64155 14.946 9.4646 15.0459 9.33129C15.7666 8.37323 16.079 7.76101 15.9832 7.49441L15.9459 7.4321C15.9209 7.3946 15.8564 7.36028 15.7523 7.32899C15.6481 7.29776 15.5148 7.2926 15.3524 7.31341L13.553 7.32584C13.5239 7.31551 13.4822 7.31647 13.428 7.32899C13.3738 7.34151 13.3468 7.34779 13.3468 7.34779L13.3154 7.36343L13.2906 7.38223C13.2697 7.39466 13.2468 7.41652 13.2218 7.44777C13.1969 7.47891 13.1761 7.51546 13.1595 7.5571C12.9636 8.0611 12.7409 8.52969 12.4909 8.96286C12.3368 9.22115 12.1952 9.44499 12.066 9.63453C11.9369 9.82399 11.8286 9.96359 11.7412 10.0531C11.6536 10.1426 11.5746 10.2144 11.5037 10.2686C11.4328 10.3228 11.3788 10.3457 11.3413 10.3374C11.3038 10.329 11.2685 10.3207 11.235 10.3123C11.1767 10.2748 11.1298 10.2238 11.0945 10.1593C11.059 10.0947 11.0351 10.0135 11.0226 9.91558C11.0102 9.81763 11.0028 9.73337 11.0007 9.66254C10.9988 9.59179 10.9997 9.49171 11.0039 9.3626C11.0082 9.23342 11.0102 9.14602 11.0102 9.1002C11.0102 8.94189 11.0133 8.77008 11.0195 8.58473C11.0258 8.39938 11.0309 8.25252 11.0351 8.14432C11.0394 8.03602 11.0413 7.92144 11.0413 7.80064C11.0413 7.67985 11.034 7.58511 11.0195 7.51636C11.0051 7.44768 10.9831 7.38103 10.954 7.31641C10.9248 7.25185 10.8821 7.20191 10.8259 7.16646C10.7697 7.13105 10.6998 7.10295 10.6167 7.08208C10.3959 7.03212 10.1147 7.00509 9.77311 7.00089C8.99841 6.99257 8.50063 7.0426 8.27987 7.1509C8.1924 7.19666 8.11325 7.25918 8.04248 7.33827C7.96748 7.42994 7.95702 7.47996 8.01116 7.48819C8.26111 7.52563 8.43806 7.6152 8.54221 7.75681L8.57974 7.83185C8.60893 7.88599 8.63808 7.98184 8.66725 8.11927C8.69638 8.2567 8.71518 8.40872 8.72345 8.57525C8.74424 8.87937 8.74424 9.1397 8.72345 9.35626C8.70259 9.5729 8.6829 9.74156 8.6641 9.86236C8.6453 9.98315 8.6172 10.081 8.57974 10.156C8.54221 10.231 8.51724 10.2768 8.50472 10.2934C8.49223 10.31 8.48181 10.3205 8.47354 10.3246C8.4194 10.3454 8.36309 10.356 8.30482 10.356C8.24645 10.356 8.17568 10.3268 8.09239 10.2684C8.00913 10.2101 7.92271 10.1299 7.83314 10.0279C7.74357 9.9258 7.64256 9.78314 7.53005 9.59988C7.41764 9.41663 7.301 9.20005 7.1802 8.95014L7.08026 8.7689C7.01778 8.65231 6.93243 8.48253 6.82413 8.25974C6.71577 8.03685 6.61998 7.82126 6.53672 7.61299C6.50343 7.52552 6.45343 7.45893 6.38679 7.41311L6.35552 7.39431C6.33473 7.37768 6.30136 7.36002 6.25558 7.3412C6.20973 7.3224 6.16189 7.30892 6.11187 7.30063L4.39994 7.31306C4.22501 7.31306 4.10631 7.35269 4.04381 7.43184L4.0188 7.46928C4.0063 7.49014 4 7.52345 4 7.56929C4 7.61512 4.0125 7.67136 4.03751 7.73795C4.28742 8.3253 4.55919 8.89176 4.85282 9.4374C5.14646 9.98304 5.40162 10.4226 5.61815 10.7556C5.83474 11.0889 6.0555 11.4034 6.28044 11.699C6.50538 11.9948 6.65427 12.1843 6.72712 12.2676C6.80006 12.351 6.85735 12.4134 6.899 12.455L7.05522 12.605C7.15519 12.7049 7.30198 12.8247 7.49567 12.9642C7.68941 13.1038 7.90389 13.2412 8.13922 13.3767C8.3746 13.512 8.64843 13.6223 8.96086 13.7077C9.27325 13.7932 9.5773 13.8275 9.87305 13.8109H10.5916C10.7373 13.7983 10.8477 13.7525 10.9227 13.6734L10.9476 13.6421C10.9643 13.6172 10.98 13.5786 10.9944 13.5266C11.009 13.4746 11.0163 13.4172 11.0163 13.3548C11.012 13.1758 11.0257 13.0144 11.0568 12.8707C11.088 12.727 11.1235 12.6187 11.1632 12.5458C11.2028 12.4729 11.2476 12.4114 11.2974 12.3616C11.3474 12.3116 11.383 12.2814 11.4038 12.2709C11.4246 12.2605 11.4411 12.2533 11.4536 12.2491C11.5536 12.2158 11.6712 12.248 11.8067 12.346C11.9421 12.4439 12.0691 12.5648 12.1879 12.7084C12.3066 12.8522 12.4493 13.0135 12.6158 13.1925C12.7825 13.3717 12.9283 13.5048 13.0532 13.5924L13.1781 13.6674C13.2615 13.7174 13.3698 13.7633 13.5031 13.8049C13.6362 13.8465 13.7528 13.8569 13.8529 13.8361L15.4523 13.8112C15.6105 13.8112 15.7336 13.785 15.8209 13.733C15.9084 13.681 15.9604 13.6236 15.9772 13.5612C15.9939 13.4988 15.9948 13.4279 15.9803 13.3487C15.9655 13.2697 15.9509 13.2144 15.9364 13.1832Z" fill="#BCBCBC"/>
<circle cx="10" cy="10" r="9.5" stroke="#C4C4C4"/>
</svg>
